<svg width="320" height="320" viewBox="0 0 320 320" fill="none" xmlns="http://www.w3.org/2000/svg">
<rect x="30.6478" y="121.492" width="257.803" height="23.7913" fill="#D9D9D9"/>
<path d="M32.9814 182.457H78.4731V265.837H32.9814V182.457Z" fill="#D9D9D9"/>
<rect x="103.746" y="182.457" width="45.4916" height="83.3806" fill="#D9D9D9"/>
<rect x="174.511" y="182.457" width="45.4916" height="83.3806" fill="#D9D9D9"/>
<rect x="245.276" y="182.457" width="45.4916" height="83.3806" fill="#D9D9D9"/>
<rect x="15.324" y="151.974" width="288.451" height="23.7913" fill="#D9D9D9"/>
<path d="M0 272.417H320V320H0V272.417Z" fill="#D9D9D9"/>
<g clip-path="url(#clip0_3_85)">
<path d="M158.823 275.163C225.132 275.163 278.886 226.426 278.886 166.306C278.886 106.186 225.132 57.4495 158.823 57.4495C92.5143 57.4495 38.7605 106.186 38.7605 166.306C38.7605 226.426 92.5143 275.163 158.823 275.163Z" fill="#D9D9D9"/>
</g>
<rect x="155" width="8" height="62.7494" fill="#D9D9D9"/>
<rect x="167.5" y="0.5" width="21" height="12.7264" stroke="#D9D9D9"/>
<rect x="167" y="25.4919" width="64" height="3.92184" fill="#D9D9D9"/>
<rect x="192" width="39" height="5.88276" fill="#D9D9D9"/>
<rect x="192" y="9.80457" width="39" height="3.92184" fill="#D9D9D9"/>
<rect x="167" y="17.6483" width="64" height="3.92184" fill="#D9D9D9"/>
<path d="M174 2.94141L174.674 4.29637H176.853L175.09 5.13378L175.763 6.48874L174 5.65133L172.237 6.48874L172.91 5.13378L171.147 4.29637H173.326L174 2.94141Z" fill="#D9D9D9"/>
<path d="M183 2.94141L183.674 4.29637H185.853L184.09 5.13378L184.763 6.48874L183 5.65133L181.237 6.48874L181.91 5.13378L180.147 4.29637H182.326L183 2.94141Z" fill="#D9D9D9"/>
<path d="M174 6.86316L174.674 8.55686L176.853 8.55686L175.09 9.60363L175.763 11.2973L174 10.2506L172.237 11.2973L172.91 9.60363L171.147 8.55686L173.326 8.55686L174 6.86316Z" fill="#D9D9D9"/>
<path d="M183 6.86316L183.674 8.55686L185.853 8.55686L184.09 9.60363L184.763 11.2973L183 10.2506L181.237 11.2973L181.91 9.60363L180.147 8.55686L182.326 8.55686L183 6.86316Z" fill="#D9D9D9"/>
<defs>
<clipPath id="clip0_3_85">
<rect width="241.742" height="58.6434" fill="white" transform="translate(38.7605 57.4495)"/>
</clipPath>
</defs>
</svg>
